<mxfile host="app.diagrams.net" modified="2023-02-27T20:49:01.748Z" agent="5.0 (Windows NT 10.0; Win64; x64) AppleWebKit/537.36 (KHTML, like Gecko) Chrome/110.0.0.0 Safari/537.36" etag="YoFxhNOzP08uM23bmjZK" version="20.8.23" type="github">
  <diagram name="Trang-1" id="UWszojuAKr0MCbEOIaPe">
    <mxGraphModel dx="1050" dy="587" grid="1" gridSize="10" guides="1" tooltips="1" connect="1" arrows="1" fold="1" page="1" pageScale="1" pageWidth="827" pageHeight="1169" math="0" shadow="0">
      <root>
        <mxCell id="0" />
        <mxCell id="1" parent="0" />
        <mxCell id="D2d99XShfhGIEQLXO5Ei-3" value="Admin" style="shape=umlActor;verticalLabelPosition=bottom;verticalAlign=top;html=1;outlineConnect=0;fontFamily=Times New Roman;" vertex="1" parent="1">
          <mxGeometry x="700" y="555" width="30" height="60" as="geometry" />
        </mxCell>
        <mxCell id="D2d99XShfhGIEQLXO5Ei-6" value="User" style="shape=umlActor;verticalLabelPosition=bottom;verticalAlign=top;html=1;outlineConnect=0;fontFamily=Times New Roman;" vertex="1" parent="1">
          <mxGeometry x="130" y="555" width="30" height="60" as="geometry" />
        </mxCell>
        <mxCell id="D2d99XShfhGIEQLXO5Ei-10" value="&lt;b&gt;&lt;font style=&quot;font-size: 14px;&quot;&gt;Hệ thống&lt;/font&gt;&lt;/b&gt;" style="rounded=0;whiteSpace=wrap;html=1;horizontal=1;verticalAlign=top;fontFamily=Times New Roman;" vertex="1" parent="1">
          <mxGeometry x="230" y="260" width="420" height="620" as="geometry" />
        </mxCell>
        <mxCell id="D2d99XShfhGIEQLXO5Ei-8" value="Đăng xuất" style="ellipse;whiteSpace=wrap;html=1;fontFamily=Times New Roman;" vertex="1" parent="1">
          <mxGeometry x="375" y="800" width="130" height="60" as="geometry" />
        </mxCell>
        <mxCell id="D2d99XShfhGIEQLXO5Ei-7" value="Đăng nhập" style="ellipse;whiteSpace=wrap;html=1;fontFamily=Times New Roman;" vertex="1" parent="1">
          <mxGeometry x="375" y="640" width="130" height="60" as="geometry" />
        </mxCell>
        <mxCell id="D2d99XShfhGIEQLXO5Ei-9" value="Đăng ký" style="ellipse;whiteSpace=wrap;html=1;fontFamily=Times New Roman;" vertex="1" parent="1">
          <mxGeometry x="375" y="720" width="130" height="60" as="geometry" />
        </mxCell>
        <mxCell id="D2d99XShfhGIEQLXO5Ei-12" value="Thống kê" style="ellipse;whiteSpace=wrap;html=1;fontFamily=Times New Roman;" vertex="1" parent="1">
          <mxGeometry x="375" y="560" width="130" height="60" as="geometry" />
        </mxCell>
        <mxCell id="D2d99XShfhGIEQLXO5Ei-14" value="Xem nội dung khóa học" style="ellipse;whiteSpace=wrap;html=1;fontFamily=Times New Roman;" vertex="1" parent="1">
          <mxGeometry x="370" y="320" width="140" height="60" as="geometry" />
        </mxCell>
        <mxCell id="D2d99XShfhGIEQLXO5Ei-15" value="Sửa nội dung khóa học" style="ellipse;whiteSpace=wrap;html=1;fontFamily=Times New Roman;" vertex="1" parent="1">
          <mxGeometry x="370" y="400" width="140" height="60" as="geometry" />
        </mxCell>
        <mxCell id="D2d99XShfhGIEQLXO5Ei-16" value="Đánh giá khóa học" style="ellipse;whiteSpace=wrap;html=1;fontFamily=Times New Roman;" vertex="1" parent="1">
          <mxGeometry x="375" y="480" width="130" height="60" as="geometry" />
        </mxCell>
        <mxCell id="D2d99XShfhGIEQLXO5Ei-18" value="" style="endArrow=none;html=1;rounded=0;fontFamily=Times New Roman;fontSize=14;" edge="1" parent="1" source="D2d99XShfhGIEQLXO5Ei-14" target="D2d99XShfhGIEQLXO5Ei-6">
          <mxGeometry width="50" height="50" relative="1" as="geometry">
            <mxPoint x="390" y="560" as="sourcePoint" />
            <mxPoint x="440" y="510" as="targetPoint" />
          </mxGeometry>
        </mxCell>
        <mxCell id="D2d99XShfhGIEQLXO5Ei-19" value="" style="endArrow=none;html=1;rounded=0;fontFamily=Times New Roman;fontSize=14;" edge="1" parent="1" source="D2d99XShfhGIEQLXO5Ei-15" target="D2d99XShfhGIEQLXO5Ei-6">
          <mxGeometry width="50" height="50" relative="1" as="geometry">
            <mxPoint x="406" y="383" as="sourcePoint" />
            <mxPoint x="180" y="502" as="targetPoint" />
          </mxGeometry>
        </mxCell>
        <mxCell id="D2d99XShfhGIEQLXO5Ei-20" value="" style="endArrow=none;html=1;rounded=0;fontFamily=Times New Roman;fontSize=14;" edge="1" parent="1" source="D2d99XShfhGIEQLXO5Ei-16" target="D2d99XShfhGIEQLXO5Ei-6">
          <mxGeometry width="50" height="50" relative="1" as="geometry">
            <mxPoint x="416" y="393" as="sourcePoint" />
            <mxPoint x="190" y="512" as="targetPoint" />
          </mxGeometry>
        </mxCell>
        <mxCell id="D2d99XShfhGIEQLXO5Ei-21" value="" style="endArrow=none;html=1;rounded=0;fontFamily=Times New Roman;fontSize=14;" edge="1" parent="1" source="D2d99XShfhGIEQLXO5Ei-7" target="D2d99XShfhGIEQLXO5Ei-6">
          <mxGeometry width="50" height="50" relative="1" as="geometry">
            <mxPoint x="426" y="403" as="sourcePoint" />
            <mxPoint x="200" y="522" as="targetPoint" />
          </mxGeometry>
        </mxCell>
        <mxCell id="D2d99XShfhGIEQLXO5Ei-22" value="" style="endArrow=none;html=1;rounded=0;fontFamily=Times New Roman;fontSize=14;" edge="1" parent="1" source="D2d99XShfhGIEQLXO5Ei-9" target="D2d99XShfhGIEQLXO5Ei-6">
          <mxGeometry width="50" height="50" relative="1" as="geometry">
            <mxPoint x="436" y="413" as="sourcePoint" />
            <mxPoint x="210" y="532" as="targetPoint" />
          </mxGeometry>
        </mxCell>
        <mxCell id="D2d99XShfhGIEQLXO5Ei-23" value="" style="endArrow=none;html=1;rounded=0;fontFamily=Times New Roman;fontSize=14;" edge="1" parent="1" source="D2d99XShfhGIEQLXO5Ei-8" target="D2d99XShfhGIEQLXO5Ei-6">
          <mxGeometry width="50" height="50" relative="1" as="geometry">
            <mxPoint x="446" y="423" as="sourcePoint" />
            <mxPoint x="220" y="542" as="targetPoint" />
          </mxGeometry>
        </mxCell>
        <mxCell id="D2d99XShfhGIEQLXO5Ei-24" value="" style="endArrow=none;html=1;rounded=0;fontFamily=Times New Roman;fontSize=14;" edge="1" parent="1" source="D2d99XShfhGIEQLXO5Ei-14" target="D2d99XShfhGIEQLXO5Ei-3">
          <mxGeometry width="50" height="50" relative="1" as="geometry">
            <mxPoint x="390" y="560" as="sourcePoint" />
            <mxPoint x="440" y="510" as="targetPoint" />
          </mxGeometry>
        </mxCell>
        <mxCell id="D2d99XShfhGIEQLXO5Ei-26" value="" style="endArrow=none;html=1;rounded=0;fontFamily=Times New Roman;fontSize=14;" edge="1" parent="1" source="D2d99XShfhGIEQLXO5Ei-15" target="D2d99XShfhGIEQLXO5Ei-3">
          <mxGeometry width="50" height="50" relative="1" as="geometry">
            <mxPoint x="481" y="387" as="sourcePoint" />
            <mxPoint x="710" y="582" as="targetPoint" />
          </mxGeometry>
        </mxCell>
        <mxCell id="D2d99XShfhGIEQLXO5Ei-27" value="" style="endArrow=none;html=1;rounded=0;fontFamily=Times New Roman;fontSize=14;" edge="1" parent="1" source="D2d99XShfhGIEQLXO5Ei-16" target="D2d99XShfhGIEQLXO5Ei-3">
          <mxGeometry width="50" height="50" relative="1" as="geometry">
            <mxPoint x="491" y="397" as="sourcePoint" />
            <mxPoint x="720" y="592" as="targetPoint" />
          </mxGeometry>
        </mxCell>
        <mxCell id="D2d99XShfhGIEQLXO5Ei-28" value="" style="endArrow=none;html=1;rounded=0;fontFamily=Times New Roman;fontSize=14;" edge="1" parent="1" source="D2d99XShfhGIEQLXO5Ei-12" target="D2d99XShfhGIEQLXO5Ei-3">
          <mxGeometry width="50" height="50" relative="1" as="geometry">
            <mxPoint x="501" y="407" as="sourcePoint" />
            <mxPoint x="730" y="602" as="targetPoint" />
          </mxGeometry>
        </mxCell>
        <mxCell id="D2d99XShfhGIEQLXO5Ei-29" value="" style="endArrow=none;html=1;rounded=0;fontFamily=Times New Roman;fontSize=14;" edge="1" parent="1" source="D2d99XShfhGIEQLXO5Ei-7" target="D2d99XShfhGIEQLXO5Ei-3">
          <mxGeometry width="50" height="50" relative="1" as="geometry">
            <mxPoint x="515" y="599" as="sourcePoint" />
            <mxPoint x="710" y="595" as="targetPoint" />
          </mxGeometry>
        </mxCell>
        <mxCell id="D2d99XShfhGIEQLXO5Ei-30" value="" style="endArrow=none;html=1;rounded=0;fontFamily=Times New Roman;fontSize=14;" edge="1" parent="1" source="D2d99XShfhGIEQLXO5Ei-9" target="D2d99XShfhGIEQLXO5Ei-3">
          <mxGeometry width="50" height="50" relative="1" as="geometry">
            <mxPoint x="525" y="609" as="sourcePoint" />
            <mxPoint x="720" y="605" as="targetPoint" />
          </mxGeometry>
        </mxCell>
        <mxCell id="D2d99XShfhGIEQLXO5Ei-31" value="" style="endArrow=none;html=1;rounded=0;fontFamily=Times New Roman;fontSize=14;" edge="1" parent="1" source="D2d99XShfhGIEQLXO5Ei-8" target="D2d99XShfhGIEQLXO5Ei-3">
          <mxGeometry width="50" height="50" relative="1" as="geometry">
            <mxPoint x="535" y="619" as="sourcePoint" />
            <mxPoint x="730" y="615" as="targetPoint" />
          </mxGeometry>
        </mxCell>
      </root>
    </mxGraphModel>
  </diagram>
</mxfile>
